<svg width="1440" height="498" viewBox="0 0 1440 498" fill="none" xmlns="http://www.w3.org/2000/svg">
<rect x="449.594" y="84.9374" width="618.566" height="309.547" rx="34" transform="rotate(9.36702 449.594 84.9374)" fill="#F9FAFE"/>
<rect x="1043.56" y="41.6292" width="260.954" height="93.3777" rx="24" transform="rotate(9.36702 1043.56 41.6292)" fill="#D1D5F4"/>
<rect x="-94.2141" y="176.168" width="477.083" height="90.8463" rx="26" transform="rotate(9.36702 -94.2141 176.168)" fill="#67D0CA"/>
<rect x="351.807" width="215.009" height="41.8216" rx="10" transform="rotate(9.36702 351.807 0)" fill="#F6D869"/>
<rect width="64.2532" height="67.8414" rx="18" transform="matrix(0.986666 0.162758 0.162758 -0.986666 187.892 146.105)" fill="#2138B7"/>
<rect x="1110.08" y="172.629" width="462.914" height="147.943" rx="34" transform="rotate(9.36702 1110.08 172.629)" fill="#F6D869"/>
<rect width="64.2532" height="67.8414" rx="13" transform="matrix(0.986666 0.162758 0.162758 -0.986666 1125.62 366.167)" fill="#67D0CA"/>
<rect width="64.2532" height="67.8414" rx="13" transform="matrix(0.986666 0.162758 0.162758 -0.986666 271 375.937)" fill="#D1D5F4"/>
<circle cx="842" cy="387" r="1" fill="#2138B7"/>
<circle cx="864" cy="387" r="1" fill="#2138B7"/>
<circle cx="886" cy="387" r="1" fill="#2138B7"/>
<circle cx="908" cy="387" r="1" fill="#2138B7"/>
<circle cx="930" cy="387" r="1" fill="#2138B7"/>
<circle cx="952" cy="387" r="1" fill="#2138B7"/>
<circle cx="974" cy="387" r="1" fill="#2138B7"/>
<circle cx="996" cy="387" r="1" fill="#2138B7"/>
<circle cx="1018" cy="387" r="1" fill="#2138B7"/>
<circle cx="1040" cy="387" r="1" fill="#2138B7"/>
<circle cx="1062" cy="387" r="1" fill="#2138B7"/>
<circle cx="842" cy="409" r="1" fill="#2138B7"/>
<circle cx="864" cy="409" r="1" fill="#2138B7"/>
<circle cx="886" cy="409" r="1" fill="#2138B7"/>
<circle cx="908" cy="409" r="1" fill="#2138B7"/>
<circle cx="930" cy="409" r="1" fill="#2138B7"/>
<circle cx="952" cy="409" r="1" fill="#2138B7"/>
<circle cx="974" cy="409" r="1" fill="#2138B7"/>
<circle cx="996" cy="409" r="1" fill="#2138B7"/>
<circle cx="1018" cy="409" r="1" fill="#2138B7"/>
<circle cx="1040" cy="409" r="1" fill="#2138B7"/>
<circle cx="1062" cy="409" r="1" fill="#2138B7"/>
<circle cx="842" cy="431" r="1" fill="#2138B7"/>
<circle cx="864" cy="431" r="1" fill="#2138B7"/>
<circle cx="886" cy="431" r="1" fill="#2138B7"/>
<circle cx="908" cy="431" r="1" fill="#2138B7"/>
<circle cx="930" cy="431" r="1" fill="#2138B7"/>
<circle cx="952" cy="431" r="1" fill="#2138B7"/>
<circle cx="974" cy="431" r="1" fill="#2138B7"/>
<circle cx="996" cy="431" r="1" fill="#2138B7"/>
<circle cx="1018" cy="431" r="1" fill="#2138B7"/>
<circle cx="1040" cy="431" r="1" fill="#2138B7"/>
<circle cx="1062" cy="431" r="1" fill="#2138B7"/>
<circle cx="842" cy="453" r="1" fill="#2138B7"/>
<circle cx="864" cy="453" r="1" fill="#2138B7"/>
<circle cx="886" cy="453" r="1" fill="#2138B7"/>
<circle cx="908" cy="453" r="1" fill="#2138B7"/>
<circle cx="930" cy="453" r="1" fill="#2138B7"/>
<circle cx="952" cy="453" r="1" fill="#2138B7"/>
<circle cx="974" cy="453" r="1" fill="#2138B7"/>
<circle cx="996" cy="453" r="1" fill="#2138B7"/>
<circle cx="1018" cy="453" r="1" fill="#2138B7"/>
<circle cx="1040" cy="453" r="1" fill="#2138B7"/>
<circle cx="1062" cy="453" r="1" fill="#2138B7"/>
<circle cx="842" cy="475" r="1" fill="#2138B7"/>
<circle cx="864" cy="475" r="1" fill="#2138B7"/>
<circle cx="886" cy="475" r="1" fill="#2138B7"/>
<circle cx="908" cy="475" r="1" fill="#2138B7"/>
<circle cx="930" cy="475" r="1" fill="#2138B7"/>
<circle cx="952" cy="475" r="1" fill="#2138B7"/>
<circle cx="974" cy="475" r="1" fill="#2138B7"/>
<circle cx="996" cy="475" r="1" fill="#2138B7"/>
<circle cx="1018" cy="475" r="1" fill="#2138B7"/>
<circle cx="1040" cy="475" r="1" fill="#2138B7"/>
<circle cx="1062" cy="475" r="1" fill="#2138B7"/>
<circle cx="842" cy="497" r="1" fill="#2138B7"/>
<circle cx="864" cy="497" r="1" fill="#2138B7"/>
<circle cx="886" cy="497" r="1" fill="#2138B7"/>
<circle cx="908" cy="497" r="1" fill="#2138B7"/>
<circle cx="930" cy="497" r="1" fill="#2138B7"/>
<circle cx="952" cy="497" r="1" fill="#2138B7"/>
<circle cx="974" cy="497" r="1" fill="#2138B7"/>
<circle cx="996" cy="497" r="1" fill="#2138B7"/>
<circle cx="1018" cy="497" r="1" fill="#2138B7"/>
<circle cx="1040" cy="497" r="1" fill="#2138B7"/>
<circle cx="1062" cy="497" r="1" fill="#2138B7"/>
</svg>
