<svg id="Layer_1" data-name="Layer 1" xmlns="http://www.w3.org/2000/svg" viewBox="0 0 360 107.66"><defs><style>.cls-1{fill:none;}.cls-2{fill:#102935;}.cls-3{fill:#02d1d2;}</style></defs><title>teal logo</title><rect class="cls-1" width="360" height="107.66"/><path class="cls-2" d="M117.07,36.32H102.12v34H111V60.93h6.06c8.69,0,13.69-4.66,13.69-12.67C130.76,40.68,125.76,36.32,117.07,36.32Zm-.43,17.52H111V43.4h5.63c3.59,0,5.68,1.8,5.68,5.15S120.23,53.84,116.64,53.84Z" transform="translate(-0.48 -0.48)"/><path class="cls-2" d="M143.63,36.32,129,70.35h9.13l2.38-6h14.71l2.33,6H167l-14.28-34Zm-.44,21.21,4.75-12.14,4.67,12.14Z" transform="translate(-0.48 -0.48)"/><polygon class="cls-2" points="193.82 56.32 178.38 35.83 170.56 35.83 170.56 69.86 178.87 69.86 178.87 49.47 194.3 69.86 202.07 69.86 202.07 35.83 193.82 35.83 193.82 56.32"/><polygon class="cls-2" points="232.89 35.83 224.35 60.44 215.85 35.83 206.29 35.83 219.49 69.86 228.72 69.86 242.02 35.83 232.89 35.83"/><path class="cls-2" d="M251.19,36.32l-14.61,34h9.12l2.38-6h14.71l2.33,6h9.47l-14.27-34Zm-.44,21.21,4.76-12.14,4.66,12.14Z" transform="translate(-0.48 -0.48)"/><polygon class="cls-2" points="287.01 35.83 278.13 35.83 278.13 69.86 301.43 69.86 301.43 62.29 287.01 62.29 287.01 35.83"/><path class="cls-2" d="M320.07,36.32l-14.61,34h9.12l2.38-6h14.71l2.33,6h9.47l-14.28-34Zm-.44,21.21,4.76-12.14,4.66,12.14Z" transform="translate(-0.48 -0.48)"/><path class="cls-3" d="M17.58,35.91V72.72L38.1,84.57V75.06h0V70.38h0v-9.5h0V47.75l11.38-6.57,11.37,6.57V60.88L50.36,66.94V62.26l6.44-3.71V50.08l-7.33-4.23-7.34,4.23v8.47h0v4.67h0v9.51h0v4.67h0v9.5l7.35,4.24L81.35,72.72V35.91L49.47,17.5ZM73.12,68,50.36,81.11V76.44l18.71-10.8V43L49.47,31.67,29.86,43V59.72h0V70.31L25.81,68V40.66L49.47,27,73.12,40.66Z" transform="translate(-0.48 -0.48)"/></svg>